<svg width="32" height="32" viewBox="0 0 32 32" fill="none" xmlns="http://www.w3.org/2000/svg">
<path d="M23.3068 20.1393C23.1277 19.9601 23.0145 19.715 23.0145 19.4322L23.0145 8.98588L12.5682 8.98588C12.0214 8.98588 11.5689 8.53333 11.5689 7.9865C11.5688 7.43971 12.0214 6.98716 12.5682 6.98716L24.0139 6.98712C24.5607 6.98712 25.0132 7.43967 25.0132 7.9865L25.0132 19.4322C25.0132 19.979 24.5607 20.4316 24.0139 20.4315C23.7405 20.441 23.4859 20.3184 23.3068 20.1393Z" fill="#292D32"/>
<path d="M7.27989 24.7222C6.89334 24.3356 6.89334 23.6945 7.27989 23.308L23.1474 7.44051C23.5339 7.05395 24.175 7.05395 24.5616 7.44051C24.9481 7.82706 24.9481 8.46817 24.5616 8.85472L8.69411 24.7222C8.30756 25.1087 7.66645 25.1087 7.27989 24.7222Z" fill="#292D32"/>
</svg>
