<svg width="73" height="26" viewBox="0 0 73 26" fill="none" xmlns="http://www.w3.org/2000/svg">
<path d="M14.9993 21.67C14.8093 21.67 14.6193 21.6 14.4693 21.45L7.9493 14.93C6.8893 13.87 6.8893 12.13 7.9493 11.07L14.4693 4.55002C14.7593 4.26002 15.2393 4.26002 15.5293 4.55002C15.8193 4.84002 15.8193 5.32002 15.5293 5.61002L9.0093 12.13C8.5293 12.61 8.5293 13.39 9.0093 13.87L15.5293 20.39C15.8193 20.68 15.8193 21.16 15.5293 21.45C15.3793 21.59 15.1893 21.67 14.9993 21.67Z" fill="black"/>
<path d="M44.602 10.37C44.602 8.372 43.018 7.13 40.39 7.13H35.206V20H40.75C43.414 20 45.106 18.632 45.106 16.256C45.106 14.33 43.954 13.304 42.604 13.07V13.034C43.666 12.674 44.602 11.954 44.602 10.37ZM36.826 12.512V8.57H40.822C42.298 8.57 42.982 9.38 42.982 10.55C42.982 11.72 42.478 12.512 40.642 12.512H36.826ZM36.826 13.952H41.272C42.622 13.952 43.486 14.87 43.486 16.256C43.486 17.462 42.982 18.56 40.912 18.56H36.826V13.952ZM52.19 13.16C52.19 14.078 51.488 14.276 49.94 14.564C47.564 15.014 46.016 15.554 46.016 17.642C46.016 19.19 47.186 20.252 49.04 20.252C50.552 20.252 51.578 19.712 52.154 18.848H52.19C52.442 19.856 52.964 20.09 53.828 20.09C54.098 20.09 54.296 20.072 54.674 19.946V18.938C53.756 19.046 53.63 18.65 53.63 17.93V13.466C53.63 11.252 52.064 10.568 50.318 10.568C47.654 10.568 46.556 11.9 46.466 13.664H47.906C47.996 12.332 48.572 11.828 50.318 11.828C51.794 11.828 52.19 12.44 52.19 13.16ZM49.184 18.992C47.996 18.992 47.456 18.47 47.456 17.57C47.456 16.472 48.284 16.022 50.066 15.644C51.038 15.446 51.92 15.194 52.19 14.924V16.454C52.19 18.218 50.894 18.992 49.184 18.992ZM62.2658 14.132H63.7058C63.4898 12.08 61.9418 10.568 59.6738 10.568C56.9918 10.568 55.2278 12.53 55.2278 15.41C55.2278 18.29 56.9918 20.252 59.6738 20.252C61.9418 20.252 63.5798 18.704 63.7058 16.616H62.2658C62.1938 17.714 61.5278 18.992 59.6738 18.992C57.4958 18.992 56.6678 17.138 56.6678 15.41C56.6678 13.682 57.4958 11.828 59.6738 11.828C61.5098 11.828 62.1938 13.124 62.2658 14.132ZM65.0838 7.13V20H66.5238V16.382L67.9458 15.068L71.2038 20H72.9138L68.9538 14.222L72.5358 10.82H70.7358L66.5238 14.762V7.13H65.0838Z" fill="black"/>
</svg>
