<svg width="72" height="72" viewBox="0 0 72 72" fill="none" xmlns="http://www.w3.org/2000/svg">
<path d="M36 0L36.9245 26.6134L43.0233 0.69173L38.738 26.9741L49.7766 2.74034L40.4462 27.6817L56.0005 6.06709L41.9836 28.709L61.4558 10.5442L43.291 30.0164L65.9329 15.9995L44.3183 31.5538L69.2597 22.2234L45.0259 33.262L71.3083 28.9767L45.3866 35.0755L72 36L45.3866 36.9245L71.3083 43.0233L45.0259 38.738L69.2597 49.7766L44.3183 40.4462L65.9329 56.0005L43.291 41.9836L61.4558 61.4558L41.9836 43.291L56.0005 65.9329L40.4462 44.3183L49.7766 69.2597L38.738 45.0259L43.0233 71.3083L36.9245 45.3866L36 72L35.0755 45.3866L28.9767 71.3083L33.262 45.0259L22.2234 69.2597L31.5538 44.3183L15.9995 65.9329L30.0164 43.291L10.5442 61.4558L28.709 41.9836L6.06709 56.0005L27.6817 40.4462L2.74034 49.7766L26.9741 38.738L0.69173 43.0233L26.6134 36.9245L0 36L26.6134 35.0755L0.69173 28.9767L26.9741 33.262L2.74034 22.2234L27.6817 31.5538L6.06709 15.9995L28.709 30.0164L10.5442 10.5442L30.0164 28.709L15.9995 6.06709L31.5538 27.6817L22.2234 2.74034L33.262 26.9741L28.9767 0.69173L35.0755 26.6134L36 0Z" fill="black"/>
</svg>
