<svg width="68" height="28" viewBox="0 0 68 28" fill="none" xmlns="http://www.w3.org/2000/svg">
<path d="M6.24 23H8.4V7.76H14.112V5.84H0.528V7.76H6.24V23ZM18.864 23.336C15.12 23.336 12.864 20.696 12.864 16.88C12.864 13.064 15.12 10.424 18.864 10.424C22.584 10.424 24.84 13.064 24.84 16.88C24.84 20.696 22.584 23.336 18.864 23.336ZM18.864 21.656C21.6 21.656 22.92 19.496 22.92 16.88C22.92 14.264 21.6 12.104 18.864 12.104C16.104 12.104 14.784 14.264 14.784 16.88C14.784 19.496 16.104 21.656 18.864 21.656ZM32.8748 10.424C30.8587 10.424 29.7067 11.336 28.9867 12.272H28.9387V10.76H27.0187V27.128H28.9387V21.416H28.9867C29.7067 22.472 30.8587 23.336 32.8748 23.336C35.8987 23.336 38.3467 20.912 38.3467 16.88C38.3467 12.848 35.8987 10.424 32.8748 10.424ZM32.6347 21.656C30.3547 21.656 28.9387 19.76 28.9387 16.88C28.9387 14 30.3547 12.104 32.6347 12.104C35.1548 12.104 36.4268 14.48 36.4268 16.88C36.4268 19.28 35.1548 21.656 32.6347 21.656Z" fill="black"/>
<path d="M63.0576 14.5999C62.8993 14.5999 62.7409 14.5416 62.6159 14.4166L57.9993 9.79995L53.3826 14.4166C53.141 14.6583 52.741 14.6583 52.4993 14.4166C52.2576 14.175 52.2576 13.775 52.4993 13.5333L57.5576 8.47495C57.7993 8.23328 58.1993 8.23328 58.4409 8.47495L63.4993 13.5333C63.7409 13.775 63.7409 14.175 63.4993 14.4166C63.3826 14.5416 63.2159 14.5999 63.0576 14.5999Z" fill="#020202"/>
<path d="M58 23.7082C57.6583 23.7082 57.375 23.4249 57.375 23.0832V9.05823C57.375 8.71656 57.6583 8.43323 58 8.43323C58.3417 8.43323 58.625 8.71656 58.625 9.05823V23.0832C58.625 23.4249 58.3417 23.7082 58 23.7082Z" fill="#020202"/>
</svg>
