<svg width="216" height="23" viewBox="0 0 216 23" fill="none" xmlns="http://www.w3.org/2000/svg">
<path d="M9.816 18.384C15.24 18.384 18.648 14.568 18.648 9.432C18.648 4.296 15.24 0.456 9.816 0.456C4.392 0.456 0.96 4.296 0.96 9.432C0.96 14.568 4.392 18.384 9.816 18.384ZM9.816 17.424C5.112 17.424 2.16 13.824 2.16 9.432C2.16 5.016 5.112 1.416 9.816 1.416C14.496 1.416 17.448 5.016 17.448 9.432C17.448 13.824 14.496 17.424 9.816 17.424ZM12.72 7.896H14.4C14.16 5.784 12.48 4.032 9.768 4.032C6.648 4.032 4.968 6.288 4.968 9.432C4.968 12.6 6.744 14.808 9.96 14.808C12.624 14.808 14.256 13.056 14.4 10.92H12.72C12.624 11.592 12.072 13.128 9.84 13.128C7.32 13.128 6.648 11.328 6.648 9.432C6.648 7.512 7.32 5.712 9.84 5.712C12.072 5.712 12.624 7.32 12.72 7.896ZM36.4459 13.704L37.9579 18H40.1899L33.8779 0.839999H31.4779L25.1419 18H27.3739L28.8859 13.704H36.4459ZM29.6059 11.784L32.6539 2.832H32.7019L35.7499 11.784H29.6059ZM42.0729 0.839999V18H43.9929V0.839999H42.0729ZM57.3199 5.76H55.1599L51.6319 15.744H51.5839L47.8399 5.76H45.6799L50.3119 16.992C50.7919 18.192 50.2879 19.224 49.7839 19.776C49.1359 20.472 48.3919 20.544 47.3359 20.448H47.0479V21.888C47.3599 21.984 47.9119 22.128 48.6799 22.128C50.9359 22.128 51.5599 20.328 52.0879 19.008L57.3199 5.76ZM64.0037 18.336C60.2597 18.336 58.0037 15.696 58.0037 11.88C58.0037 8.064 60.2597 5.424 64.0037 5.424C67.7237 5.424 69.9797 8.064 69.9797 11.88C69.9797 15.696 67.7237 18.336 64.0037 18.336ZM64.0037 16.656C66.7397 16.656 68.0597 14.496 68.0597 11.88C68.0597 9.264 66.7397 7.104 64.0037 7.104C61.2437 7.104 59.9237 9.264 59.9237 11.88C59.9237 14.496 61.2437 16.656 64.0037 16.656ZM78.1584 5.424C76.0704 5.424 74.7744 6.36 74.1264 7.224H74.0784V5.76H72.1584V18H74.0784V10.368C74.0784 8.472 75.5184 7.104 77.6784 7.104C79.5984 7.104 80.3424 8.352 80.3424 9.936V18H82.2624V9.456C82.2624 6.648 80.3904 5.424 78.1584 5.424ZM92.5661 8.88C92.5661 10.104 91.6301 10.368 89.5661 10.752C86.3981 11.352 84.3341 12.072 84.3341 14.856C84.3341 16.92 85.8941 18.336 88.3661 18.336C90.3821 18.336 91.7501 17.616 92.5181 16.464H92.5661C92.9021 17.808 93.5981 18.12 94.7501 18.12C95.1101 18.12 95.3741 18.096 95.8781 17.928V16.584C94.6541 16.728 94.4861 16.2 94.4861 15.24V9.288C94.4861 6.336 92.3981 5.424 90.0701 5.424C86.5181 5.424 85.0541 7.2 84.9341 9.552H86.8541C86.9741 7.776 87.7421 7.104 90.0701 7.104C92.0381 7.104 92.5661 7.92 92.5661 8.88ZM88.5581 16.656C86.9741 16.656 86.2541 15.96 86.2541 14.76C86.2541 13.296 87.3581 12.696 89.7341 12.192C91.0301 11.928 92.2061 11.592 92.5661 11.232V13.272C92.5661 15.624 90.8381 16.656 88.5581 16.656ZM107.517 18H109.677V2.76H115.389V0.839999H101.805V2.76H107.517V18ZM117.486 0.839999V18H119.406V13.176L121.302 11.424L125.646 18H127.926L122.646 10.296L127.422 5.76H125.022L119.406 11.016V0.839999H117.486ZM136.721 8.88C136.721 10.104 135.785 10.368 133.721 10.752C130.553 11.352 128.489 12.072 128.489 14.856C128.489 16.92 130.049 18.336 132.521 18.336C134.537 18.336 135.905 17.616 136.673 16.464H136.721C137.057 17.808 137.753 18.12 138.905 18.12C139.265 18.12 139.529 18.096 140.033 17.928V16.584C138.809 16.728 138.641 16.2 138.641 15.24V9.288C138.641 6.336 136.553 5.424 134.225 5.424C130.673 5.424 129.209 7.2 129.089 9.552H131.009C131.129 7.776 131.897 7.104 134.225 7.104C136.193 7.104 136.721 7.92 136.721 8.88ZM132.713 16.656C131.129 16.656 130.409 15.96 130.409 14.76C130.409 13.296 131.513 12.696 133.889 12.192C135.185 11.928 136.361 11.592 136.721 11.232V13.272C136.721 15.624 134.993 16.656 132.713 16.656ZM150.396 10.176H152.316C152.028 7.44 149.964 5.424 146.94 5.424C143.364 5.424 141.012 8.04 141.012 11.88C141.012 15.72 143.364 18.336 146.94 18.336C149.964 18.336 152.148 16.272 152.316 13.488H150.396C150.3 14.952 149.412 16.656 146.94 16.656C144.036 16.656 142.932 14.184 142.932 11.88C142.932 9.576 144.036 7.104 146.94 7.104C149.388 7.104 150.3 8.832 150.396 10.176ZM160.393 5.424C158.305 5.424 157.009 6.36 156.361 7.224H156.313V0.839999H154.393V18H156.313V10.368C156.313 8.472 157.753 7.104 159.913 7.104C161.833 7.104 162.577 8.352 162.577 9.936V18H164.497V9.456C164.497 6.648 162.625 5.424 160.393 5.424ZM172.521 16.656C169.857 16.656 168.537 14.592 168.537 12.384H178.209C178.209 8.04 176.337 5.424 172.497 5.424C168.921 5.424 166.617 7.8 166.617 11.88C166.617 15.72 168.873 18.336 172.593 18.336C175.641 18.336 177.393 16.512 178.017 14.232H176.097C175.881 15.072 174.969 16.656 172.521 16.656ZM172.497 7.104C174.801 7.104 176.289 8.736 176.289 10.704H168.537C168.537 8.736 170.193 7.104 172.497 7.104ZM186.35 5.424C184.262 5.424 182.966 6.36 182.318 7.224H182.27V5.76H180.35V18H182.27V10.368C182.27 8.472 183.71 7.104 185.87 7.104C187.79 7.104 188.534 8.352 188.534 9.936V18H190.454V9.456C190.454 6.648 188.582 5.424 186.35 5.424ZM193.269 0.839999V18H195.189V13.176L197.085 11.424L201.429 18H203.709L198.429 10.296L203.205 5.76H200.805L195.189 11.016V0.839999H193.269ZM209.829 18.336C206.085 18.336 203.829 15.696 203.829 11.88C203.829 8.064 206.085 5.424 209.829 5.424C213.549 5.424 215.805 8.064 215.805 11.88C215.805 15.696 213.549 18.336 209.829 18.336ZM209.829 16.656C212.565 16.656 213.885 14.496 213.885 11.88C213.885 9.264 212.565 7.104 209.829 7.104C207.069 7.104 205.749 9.264 205.749 11.88C205.749 14.496 207.069 16.656 209.829 16.656Z" fill="black"/>
</svg>
